<?xml version="1.0" standalone="no"?>
<!DOCTYPE svg PUBLIC "-//W3C//DTD SVG 20010904//EN"
 "http://www.w3.org/TR/2001/REC-SVG-20010904/DTD/svg10.dtd">
<svg version="1.0" xmlns="http://www.w3.org/2000/svg"
 width="1500.000000pt" height="1500.000000pt" viewBox="0 0 1500.000000 1500.000000"
 preserveAspectRatio="xMidYMid meet">

<g transform="translate(0.000000,1500.000000) scale(0.100000,-0.100000)"
fill="#c5c5c5" stroke="none">
<path d="M735 14419 c-60 -31 -122 -88 -142 -131 -33 -72 -33 -87 -33 -1742
l0 -1647 21 -42 c12 -23 33 -55 46 -71 26 -31 97 -86 112 -86 5 0 22 -7 37
-15 43 -22 3302 -23 3342 -1 15 8 39 17 53 20 37 8 117 92 145 153 l24 52 0
1641 c0 1843 6 1708 -74 1790 -58 60 -100 90 -124 90 -12 0 -24 5 -27 10 -4 7
-569 10 -1663 10 l-1657 -1 -60 -30z m2975 -1853 c0 -688 -3 -1253 -8 -1258
-5 -5 -2059 -12 -2499 -8 -10 0 -13 259 -13 1260 l0 1260 1260 -2 1260 -3 0
-1249z"/>
<path d="M5840 14441 c-55 -15 -98 -42 -149 -94 -29 -30 -51 -59 -48 -64 3 -4
-3 -26 -14 -47 -18 -38 -19 -86 -19 -1662 0 -1742 -2 -1686 49 -1767 26 -41
77 -89 121 -113 34 -18 90 -19 1704 -22 l1668 -2 54 25 c78 37 119 77 154 151
l30 65 0 1632 c-1 898 -5 1652 -9 1677 -13 79 -67 147 -156 197 l-50 28 -1655
1 c-910 1 -1666 -1 -1680 -5z m2928 -1883 l2 -1258 -1242 -1 c-684 -1 -1250 0
-1258 1 -8 1 -18 5 -23 9 -5 5 -11 2180 -7 2504 0 4 568 6 1263 5 l1262 -3 3
-1257z"/>
<path d="M10851 14429 c-64 -30 -126 -97 -161 -172 l-30 -65 0 -1627 0 -1628
23 -61 c17 -46 36 -74 82 -118 33 -32 65 -58 71 -58 7 0 25 -7 40 -15 25 -13
234 -15 1674 -15 1378 0 1651 3 1685 14 56 20 131 76 146 109 6 15 20 32 31
38 10 6 18 18 17 27 -1 9 2 26 7 37 5 12 9 709 9 1670 l0 1650 -32 60 c-46 88
-101 134 -194 164 -26 8 -486 11 -1680 11 -1638 -1 -1644 -1 -1688 -21z m2969
-1863 c0 -774 -4 -1257 -9 -1261 -6 -3 -571 -5 -1257 -5 -981 0 -1250 3 -1256
13 -9 15 -11 2491 -1 2500 3 4 573 7 1265 7 l1258 0 0 -1254z"/>
<path d="M793 9390 c-80 -16 -173 -96 -209 -180 -19 -43 -19 -87 -19 -1705 l0
-1660 22 -45 c26 -52 114 -150 136 -150 8 0 31 -7 51 -15 32 -14 232 -15 1694
-13 1868 3 1687 -5 1783 84 93 88 84 -98 87 1790 l2 1671 -31 59 c-43 81 -62
99 -144 139 l-71 35 -1630 -1 c-896 -1 -1648 -5 -1671 -9z m2914 -623 c2 -2 3
-565 3 -1252 0 -918 -3 -1251 -11 -1261 -10 -12 -212 -14 -1258 -12 l-1246 3
-3 1259 c-1 748 2 1262 7 1265 10 6 2502 4 2508 -2z"/>
<path d="M5835 9388 c-16 -6 -37 -16 -45 -22 -8 -6 -32 -20 -52 -30 -21 -11
-38 -23 -38 -27 0 -5 -14 -24 -30 -43 -63 -71 -60 27 -60 -1755 0 -1642 1
-1676 35 -1721 6 -8 17 -28 25 -43 8 -15 40 -48 73 -72 46 -34 71 -45 111 -50
28 -3 790 -5 1692 -3 1502 3 1643 4 1660 19 11 9 38 26 62 38 23 12 42 25 42
30 0 5 6 16 13 23 22 24 49 70 58 102 10 35 12 3297 2 3336 -22 85 -121 193
-198 215 -45 14 -3313 16 -3350 3z m2927 -630 c4 -7 8 -571 8 -1254 0 -951 -3
-1243 -12 -1252 -15 -15 -2503 -18 -2513 -3 -3 5 -5 571 -5 1258 0 1042 2
1250 13 1258 22 16 2498 9 2509 -7z"/>
<path d="M10900 9389 c-14 -4 -37 -11 -52 -14 -14 -3 -52 -29 -84 -57 -56 -52
-81 -94 -92 -153 -4 -16 -6 -768 -7 -1670 0 -1590 1 -1641 19 -1680 43 -90 73
-122 153 -162 l78 -38 1660 5 1660 5 40 24 c96 58 146 127 165 230 8 39 10
552 8 1666 -3 1583 -3 1611 -23 1659 -23 56 -121 168 -145 164 -8 -1 -32 6
-54 15 -35 16 -163 17 -1670 16 -897 -1 -1642 -5 -1656 -10z m2911 -624 c11
-8 12 -2494 1 -2513 -7 -10 -266 -12 -1263 -10 l-1254 3 0 1255 0 1254 21 11
c22 11 2477 11 2495 0z"/>
<path d="M775 4332 c-55 -19 -145 -79 -145 -97 0 -6 -11 -22 -24 -34 -13 -12
-27 -37 -32 -54 -4 -18 -9 -776 -11 -1685 l-3 -1653 26 -55 c14 -30 37 -68 51
-85 33 -39 110 -92 124 -84 5 4 17 1 26 -7 13 -11 305 -13 1672 -13 l1656 0
43 24 c64 35 124 99 155 164 l27 58 0 1643 c0 1439 -2 1647 -15 1672 -8 16
-15 37 -15 46 0 23 -103 123 -154 151 l-41 22 -1645 2 c-1523 2 -1649 1 -1695
-15z m2929 -621 c10 -15 7 -2504 -2 -2513 -4 -4 -570 -7 -1258 -6 l-1249 3 -3
1250 c-1 688 0 1256 3 1263 3 9 264 12 1254 12 747 0 1252 -4 1255 -9z"/>
<path d="M5854 4341 c-82 -20 -163 -80 -197 -146 -51 -98 -48 33 -45 -1754 l3
-1656 27 -46 c37 -63 109 -129 166 -154 46 -20 67 -20 1657 -23 1644 -3 1680
-2 1757 35 45 21 138 113 138 136 0 10 7 31 15 47 13 26 15 226 15 1667 0
1750 1 1702 -48 1770 -49 67 -101 104 -172 121 -37 9 -3280 11 -3316 3z m2906
-640 c7 -13 10 -424 10 -1259 0 -1121 -2 -1240 -16 -1246 -24 -9 -2487 -7
-2502 2 -10 7 -12 265 -12 1258 0 687 0 1252 0 1257 0 4 565 7 1255 7 1230 0
1254 0 1265 -19z"/>
<path d="M10890 4335 c-14 -7 -37 -16 -52 -19 -38 -8 -127 -105 -154 -168
l-23 -53 -1 -1631 c0 -1593 0 -1632 20 -1688 20 -58 83 -146 104 -146 7 0 23
-11 35 -24 13 -14 31 -25 40 -25 9 0 42 -5 74 -11 39 -7 568 -9 1670 -8 l1612
3 58 32 c79 43 145 115 153 167 2 11 9 47 14 79 7 39 10 598 8 1670 l-3 1612
-23 40 c-34 60 -91 116 -152 150 l-55 30 -1650 2 c-1409 2 -1654 1 -1675 -12z
m2925 -1880 l0 -1260 -1240 -3 c-682 -1 -1250 0 -1262 3 l-23 5 0 1248 c0 960
3 1251 12 1260 9 9 298 11 1263 10 l1250 -3 0 -1260z"/>
</g>
</svg>
